<svg width="73" height="95" viewBox="0 0 73 95" fill="none" xmlns="http://www.w3.org/2000/svg">
<path d="M2.00004 17.9371C-1.19996 23.5371 3.33337 26.9371 6.00004 27.9371C6.83336 27.9371 9.3 27.5371 12.5 25.9371C15.7 24.3371 14.8333 18.6038 14 15.9371C11.3333 14.2704 5.20004 12.3371 2.00004 17.9371Z" fill="#D2CBC3"/>
<path d="M27 31.9371C27.4 36.7371 21.5 38.9371 18.5 39.4371C17 36.9371 14.9 31.5371 18.5 29.9371C23 27.9371 20.5 22.9371 23 22.9371C25.5 22.9371 26.5 25.9371 27 31.9371Z" fill="#D2CBC3"/>
<path d="M33 39.4371C31.4 39.4371 32.3333 42.1038 33 43.4371L36.5 47.4371C38.6667 47.9371 43 47.4371 43 41.4371C43 35.4371 38.6667 34.9371 36.5 35.4371C36 36.7704 34.6 39.4371 33 39.4371Z" fill="#D2CBC3"/>
<path d="M26 61.9371C28.4 60.7371 27.6667 55.7704 27 53.4371H20C17.6 53.4371 17.3333 58.1038 17.5 60.4371C19.3333 61.4371 23.6 63.1371 26 61.9371Z" fill="#D2CBC3"/>
<path d="M9.5 43.4371C11.5 46.6371 8.66667 52.7704 7 55.4371C1.4 57.0371 0 50.7704 0 47.4371L4 46.4371C5 44.1038 7.5 40.2371 9.5 43.4371Z" fill="#D2CBC3"/>
<path d="M9.5 60.4371C11.5 62.0371 8.66667 66.1038 7 67.9371C6.78053 68.1839 6.00004 67.9371 2.00004 66.9371C-1.19996 66.1371 1.00001 61.9371 2.5 59.9371C4 59.4371 7.5 58.8371 9.5 60.4371Z" fill="#D2CBC3"/>
<path d="M16.5 70.9371C14.1 71.3371 13.1667 75.1038 13 76.9371C12 77.1038 11 78.0371 15 80.4371C20 83.4371 19.5 79.9371 23 77.9371C25.8 76.3371 22.8333 71.2704 21 68.9371C20.5 69.4371 18.9 70.5371 16.5 70.9371Z" fill="#D2CBC3"/>
<path d="M41.5 60.4371C47.5 64.4371 41 70.7704 37 73.4371C34.5 72.2704 29.5 69.3371 29.5 66.9371C29.5 64.5371 32.5 63.2704 34 62.9371C34 60.4371 35.5 56.4371 41.5 60.4371Z" fill="#D2CBC3"/>
<path d="M58 72.9371C61.2 74.5371 56.3333 82.9371 53.5 86.9371C53.3333 87.4371 52.2 87.9371 49 85.9371C45.8 83.9371 48 78.4371 49.5 75.9371C51 74.2704 54.8 71.3371 58 72.9371Z" fill="#D2CBC3"/>
<path d="M66 54.4371C63.2 57.2371 62.5 61.6038 62.5 63.4371C63.1667 64.6038 65.9 66.6371 71.5 65.4371C77.1 64.2371 75.8333 54.9371 74.5 50.4371C72.8333 50.6038 68.8 51.6371 66 54.4371Z" fill="#D2CBC3"/>
<path d="M70.5 82.4371C64.1 84.0371 64.1667 90.1038 65 92.9371C66.1667 93.6038 68.9 94.9371 70.5 94.9371C72.5 94.9371 78.5 80.4371 70.5 82.4371Z" fill="#D2CBC3"/>
<path d="M64.5 27.9371C69.7 35.9371 63.3333 40.2704 59.5 41.4371C57.8333 38.2704 55.5 31.7371 59.5 30.9371C64.5 29.9371 58 17.9371 64.5 27.9371Z" fill="#D2CBC3"/>
<path d="M41.5 7.93709C37.9 14.3371 40.5 17.4371 43 17.9371L46.5 16.9371L48 14.4371C47.3333 9.60376 45.1 1.53709 41.5 7.93709Z" fill="#D2CBC3"/>
<path d="M61.5 0.437112C55.1 2.83711 57.5 10.1038 59.5 13.4371C63.5 15.8371 66.8333 12.4371 68 10.4371C68.5 6.10378 67.9 -1.96289 61.5 0.437112Z" fill="#D2CBC3"/>
</svg>
