<svg width="16" height="16" viewBox="0 0 16 16" fill="none" xmlns="http://www.w3.org/2000/svg">
<path d="M8.70018 14.8875L15.3002 8.28746C15.4002 8.18746 15.4712 8.07913 15.5132 7.96246C15.5552 7.8458 15.5758 7.7208 15.5752 7.58746C15.5752 7.45413 15.5542 7.32913 15.5122 7.21246C15.4702 7.0958 15.3995 6.98746 15.3002 6.88746L8.70018 0.287463C8.51685 0.104129 8.28751 0.00846302 8.01218 0.000463024C7.73685 -0.00753698 7.49951 0.0881294 7.30018 0.287463C7.10018 0.470796 6.99585 0.70013 6.98718 0.975463C6.97851 1.2508 7.07451 1.48813 7.27518 1.68746L12.1752 6.58746H1.00018C0.716846 6.58746 0.47918 6.68346 0.28718 6.87546C0.0951796 7.06746 -0.000487328 7.3048 0.000179291 7.58746C0.000179291 7.8708 0.0958462 8.10846 0.28718 8.30046C0.478514 8.49246 0.716179 8.58813 1.00018 8.58746H12.1752L7.27518 13.4875C7.09185 13.6708 6.99585 13.9041 6.98718 14.1875C6.97851 14.4708 7.07451 14.7041 7.27518 14.8875C7.45851 15.0875 7.69185 15.1875 7.97518 15.1875C8.25851 15.1875 8.50018 15.0875 8.70018 14.8875Z" fill="#4A291E"/>
</svg>
