<svg width="18" height="17" viewBox="0 0 18 17" fill="none" xmlns="http://www.w3.org/2000/svg">
<path d="M8.56088 13.7L4.41088 16.2C4.22754 16.3167 4.03588 16.3667 3.83588 16.35C3.63588 16.3333 3.46088 16.2667 3.31088 16.15C3.16088 16.0333 3.04421 15.8873 2.96088 15.712C2.87754 15.5367 2.86088 15.341 2.91088 15.125L4.01088 10.4L0.335876 7.225C0.169209 7.075 0.0652091 6.904 0.0238758 6.712C-0.0174575 6.52 -0.00512426 6.33267 0.0608757 6.15C0.127542 5.96667 0.227542 5.81667 0.360876 5.7C0.494209 5.58333 0.677542 5.50833 0.910876 5.475L5.76088 5.05L7.63588 0.6C7.71921 0.4 7.84854 0.25 8.02388 0.15C8.19921 0.0500001 8.37821 0 8.56088 0C8.74421 0 8.92321 0.0500001 9.09788 0.15C9.27254 0.25 9.40188 0.4 9.48588 0.6L11.3609 5.05L16.2109 5.475C16.4442 5.50833 16.6275 5.58333 16.7609 5.7C16.8942 5.81667 16.9942 5.96667 17.0609 6.15C17.1275 6.33333 17.1402 6.521 17.0989 6.713C17.0575 6.905 16.9532 7.07567 16.7859 7.225L13.1109 10.4L14.2109 15.125C14.2609 15.3417 14.2442 15.5377 14.1609 15.713C14.0775 15.8883 13.9609 16.034 13.8109 16.15C13.6609 16.2667 13.4859 16.3333 13.2859 16.35C13.0859 16.3667 12.8942 16.3167 12.7109 16.2L8.56088 13.7Z" fill="#F2BB57"/>
</svg>
