<svg width="20" height="14" viewBox="0 0 20 14" fill="none" xmlns="http://www.w3.org/2000/svg">
<path d="M1.11111 13.3333H18.8889C19.5 13.3333 20 12.8333 20 12.2222C20 11.6111 19.5 11.1111 18.8889 11.1111H1.11111C0.5 11.1111 0 11.6111 0 12.2222C0 12.8333 0.5 13.3333 1.11111 13.3333ZM1.11111 7.77778H18.8889C19.5 7.77778 20 7.27778 20 6.66667C20 6.05556 19.5 5.55556 18.8889 5.55556H1.11111C0.5 5.55556 0 6.05556 0 6.66667C0 7.27778 0.5 7.77778 1.11111 7.77778ZM0 1.11111C0 1.72222 0.5 2.22222 1.11111 2.22222H18.8889C19.5 2.22222 20 1.72222 20 1.11111C20 0.5 19.5 0 18.8889 0H1.11111C0.5 0 0 0.5 0 1.11111Z" fill="#4A291E"/>
</svg>
