<?xml version="1.0" encoding="UTF-8" standalone="no"?> <svg id="Flat" xmlns="http://www.w3.org/2000/svg" viewBox="0 0 64 64"><path d="M21.961,41H42.035A6.963,6.963,0,0,1,49,47.963V61a0,0,0,0,1,0,0H15a0,0,0,0,1,0,0V47.963A6.963,6.963,0,0,1,21.961,41Z" style="fill:#ccdaec"/><polygon points="37 40.999 37 35.5 27 35.5 27 41.001 31.998 44 37 40.999" style="fill:#4d8ebe"/><path d="M24,61H22V49a1,1,0,0,1,.514-.874L31,43.412V38h2v6a1,1,0,0,1-.514.874L24,49.588Z" style="fill:#d8a29e"/><rect x="25.998" y="51" width="2" height="2" style="fill:#1d3f54"/><rect x="25.998" y="55" width="2" height="2" style="fill:#1d3f54"/><rect x="35.998" y="51" width="2" height="2" style="fill:#1d3f54"/><rect x="35.998" y="55" width="2" height="2" style="fill:#1d3f54"/><path d="M41,36h8a0,0,0,0,1,0,0v4a4,4,0,0,1-4,4h0a4,4,0,0,1-4-4V36A0,0,0,0,1,41,36Z" style="fill:#abc8bc"/><rect x="43.998" y="42" width="2" height="14" style="fill:#abc8bc"/><rect x="42.998" y="55" width="6" height="6" style="fill:#e8d8bf"/><path d="M21.925,3H42.072A2.926,2.926,0,0,1,45,5.926V19a0,0,0,0,1,0,0H19a0,0,0,0,1,0,0V5.926A2.926,2.926,0,0,1,21.925,3Z" style="fill:#ccdaec"/><path d="M19,15H45a0,0,0,0,1,0,0V25A13,13,0,0,1,32,38h0A13,13,0,0,1,19,25V15A0,0,0,0,1,19,15Z" style="fill:#e8d8bf"/><path d="M29.856,29h-.645a2.142,2.142,0,0,0-1.837,1.04L25,34l5.161-.737A2.143,2.143,0,0,0,32,31.142h0A2.142,2.142,0,0,0,29.856,29Z" style="fill:#6c3b15"/><path d="M34.14,29h.645a2.142,2.142,0,0,1,1.837,1.04L39,34l-5.161-.737A2.143,2.143,0,0,1,32,31.142h0A2.142,2.142,0,0,1,34.14,29Z" style="fill:#6c3b15"/><rect x="18.998" y="15" width="26" height="4" style="fill:#4d8ebe"/><path d="M24,12H22V10h1V3h2v8A1,1,0,0,1,24,12Z" style="fill:#4d8ebe"/><path d="M42,12H40a1,1,0,0,1-1-1V3h2v7h1Z" style="fill:#4d8ebe"/><rect x="27.998" y="3" width="2" height="8" style="fill:#4d8ebe"/><rect x="33.998" y="3" width="2" height="8" style="fill:#4d8ebe"/></svg>