<?xml version="1.0" encoding="utf-8"?>
<!-- Generator: Adobe Illustrator 24.3.0, SVG Export Plug-In . SVG Version: 6.00 Build 0)  -->
<svg version="1.1" id="Layer_1" xmlns="http://www.w3.org/2000/svg" xmlns:xlink="http://www.w3.org/1999/xlink" x="0px" y="0px"
	 viewBox="0 0 64 64" enable-background="new 0 0 64 64" xml:space="preserve">
<path fill="#F5E8E5" d="M57.5,28.5c-2.3-4.3-3.5-9-3.5-13.9V9h-8v5.6c0,4.2-0.9,8.3-2.6,12.1c-0.3,0.6-0.6,1.2-0.9,1.8
	c-2.3,4.3-3.5,9-3.5,13.9V51h1l4,10h15c1.1,0,2-0.9,2-2V42.4C61,37.5,59.8,32.8,57.5,28.5z"/>
<polygon fill="#78A5AD" points="36,61 44,61 40,51 "/>
<path fill="#756F6D" d="M54,5c0-1.1-0.9-2-2-2h-4c-1.1,0-2,0.9-2,2v4h8V5z"/>
<path fill="#F5E8E5" d="M29.1,24.9L28,17h-8l-1.1,7.9c0,0.4-0.1,0.7-0.1,1.1h10.4C29.1,25.6,29.1,25.3,29.1,24.9z"/>
<polygon fill="#F5E8E5" points="14,61 9,56 4,61 "/>
<path fill="#F5E8E5" d="M14.1,24.9L13,17H5l-1.1,7.9c0,0.4-0.1,0.7-0.1,1.1h10.4C14.1,25.6,14.1,25.3,14.1,24.9z"/>
<path fill="#FFCB8C" d="M29.2,26H18.8c-0.5,4.4-0.3,8.8,0.5,13.1c0.4,2.3,2.4,3.9,4.7,3.9s4.3-1.7,4.7-3.9
	C29.5,34.8,29.6,30.4,29.2,26z"/>
<path fill="#FFCB8C" d="M3.8,26c-0.5,4.4-0.3,8.8,0.5,13.1C4.7,41.3,6.7,43,9,43s4.3-1.7,4.7-3.9c0.8-4.3,0.9-8.7,0.5-13.1H3.8z"/>
<path fill="#86C8D4" d="M39,51H24h-5l-4,10h21l4-10H39z"/>
<path fill="#E16674" d="M29,54l-1,1l-1-1c-0.6-0.6-1.4-0.6-2,0c-0.6,0.6-0.6,1.4,0,2l3,3l3-3c0.6-0.6,0.6-1.4,0-2
	C30.4,53.4,29.6,53.4,29,54z"/>
<path fill="#FF9CA6" d="M12.1,5.4c-0.7,0.3-1.1,1-1.1,1.8V12l7.3-1.6c0.9-0.2,1.4-1.1,1.1-2v0c-0.3-0.8-1.1-1.2-1.9-1L15,8V7.2
	C15,5.7,13.4,4.8,12.1,5.4z"/>
<path fill="#FFCB8C" d="M43.4,26.6L50,32l6.6-5.3c-1.7-3.8-2.6-7.9-2.6-12.1V9h-8v5.6C46,18.8,45.1,22.8,43.4,26.6z"/>
<path opacity="0.32" fill="#606060" d="M48.7,12.2c0.1-3.2,0.7-6.3,1.8-9.2H48c-1.1,0-2,0.9-2,2v4v5.6c0,4.2-0.9,8.3-2.6,12.1
	c-0.3,0.6-0.6,1.2-0.9,1.8c-2.3,4.3-3.5,9-3.5,13.9V51h1l1.6,4c0-6,0-13.4,0-15.7c0-3.9,4.3-9.2,5.9-15.4
	C48.4,20.8,48.7,16.1,48.7,12.2z"/>
<path fill="#FFF1EE" d="M6.3,39.1C5.5,34.8,5.4,30.4,5.8,26c0-0.4,0.1-0.7,0.1-1.1L7,17H5l-1.1,7.9c0,0.4-0.1,0.7-0.1,1.1
	c-0.5,4.4-0.3,8.8,0.5,13.1C4.7,41.3,6.7,43,9,43c0.3,0,0.7,0,1-0.1C8.1,42.5,6.6,41,6.3,39.1z"/>
<path fill="#FFF1EE" d="M21.3,39.1c-0.8-4.3-0.9-8.7-0.5-13.1c0-0.4,0.1-0.7,0.1-1.1L22,17h-2l-1.1,7.9c0,0.4-0.1,0.7-0.1,1.1
	c-0.5,4.4-0.3,8.8,0.5,13.1c0.4,2.3,2.4,3.9,4.7,3.9c0.3,0,0.7,0,1-0.1C23.1,42.5,21.6,41,21.3,39.1z"/>
<path d="M55,14.6V10h1V8h-1V5c0-1.7-1.3-3-3-3h-4c-1.7,0-3,1.3-3,3v3h-1v2h1v4.6c0,4.7-1.2,9.3-3.4,13.4c-2.4,4.4-3.6,9.4-3.6,14.4
	V50H25v-6.1c2.4-0.4,4.3-2.2,4.7-4.7c0.9-4.8,1-9.7,0.3-14.5L29,16.9c-0.1-0.5-0.5-0.9-1-0.9h-8c-0.5,0-0.9,0.4-1,0.9L18,24.8
	c-0.6,4.8-0.5,9.7,0.3,14.5c0.4,2.4,2.3,4.3,4.7,4.7V50h-4c-0.4,0-0.8,0.2-0.9,0.6l-3.7,9.3L10,55.6V43.9c2.4-0.4,4.3-2.2,4.7-4.7
	c0.9-4.8,1-9.7,0.3-14.5L14,16.9c-0.1-0.5-0.5-0.9-1-0.9H5c-0.5,0-0.9,0.4-1,0.9L3,24.8c-0.6,4.8-0.5,9.7,0.3,14.5
	c0.4,2.4,2.3,4.3,4.7,4.7v11.7l-4.7,4.7C3,60.6,2.9,61,3.1,61.4C3.2,61.8,3.6,62,4,62h55c1.7,0,3-1.3,3-3V42.4c0-5-1.3-10-3.6-14.4
	C56.2,23.9,55,19.3,55,14.6z M20.9,18h6.2l0.9,7h-8.1L20.9,18z M20.3,38.9C19.6,35,19.4,31,19.7,27h8.6c0.3,4,0.2,8-0.5,11.9
	C27.4,40.7,25.8,42,24,42S20.6,40.7,20.3,38.9z M5.9,18h6.2l0.9,7H4.9L5.9,18z M5.3,38.9C4.6,35,4.4,31,4.7,27h8.6
	c0.3,4,0.2,8-0.5,11.9C12.4,40.7,10.8,42,9,42S5.6,40.7,5.3,38.9z M6.4,60L9,57.4l2.6,2.6H6.4z M47,5c0-0.6,0.4-1,1-1h4
	c0.6,0,1,0.4,1,1v3h-6V5z M47,14.6V10h6v4.6c0,4,0.8,8,2.4,11.7L50,30.7l-5.4-4.3C46.2,22.7,47,18.7,47,14.6z M35.3,60H28H16.5
	l3.2-8h18.8L35.3,60z M37.5,60l2.5-6.3l2.5,6.3H37.5z M60,59c0,0.6-0.4,1-1,1H44.7l-1.2-3H57c0.6,0,1-0.4,1-1v-5h-2v4H44V44h12v5h2
	v-6c0-0.6-0.4-1-1-1H43c-0.6,0-1,0.4-1,1v10.3l-1.1-2.7l0,0c0-0.1-0.1-0.1-0.1-0.2C40.6,50.2,40.3,50,40,50v-7.6
	c0-4.7,1.2-9.3,3.4-13.4c0.1-0.2,0.2-0.5,0.4-0.7l5.6,4.5c0.2,0.1,0.4,0.2,0.6,0.2c0.2,0,0.4-0.1,0.6-0.2l5.6-4.6
	c0.1,0.3,0.3,0.5,0.4,0.8c2.2,4.1,3.4,8.7,3.4,13.4V59z"/>
<rect x="49" y="25" width="2" height="2"/>
<path d="M31.7,56.7c0.5-0.5,0.7-1.1,0.7-1.7s-0.3-1.3-0.7-1.7c-0.9-0.9-2.5-0.9-3.4,0L28,53.6l-0.3-0.3c-0.9-0.9-2.5-0.9-3.4,0
	c-0.5,0.5-0.7,1.1-0.7,1.7s0.3,1.3,0.7,1.7l3,3c0.2,0.2,0.5,0.3,0.7,0.3s0.5-0.1,0.7-0.3L31.7,56.7z M25.7,55.3
	c-0.1-0.1-0.1-0.2-0.1-0.3s0-0.2,0.1-0.3c0.1-0.1,0.2-0.1,0.3-0.1s0.2,0,0.3,0.1l1,1c0.4,0.4,1,0.4,1.4,0l1-1c0.2-0.2,0.4-0.2,0.6,0
	c0.1,0.1,0.1,0.2,0.1,0.3s0,0.2-0.1,0.3L28,57.6L25.7,55.3z"/>
<rect x="25" y="28" width="2" height="2"/>
<rect x="22" y="31" width="2" height="2"/>
<rect x="10" y="28" width="2" height="2"/>
<rect x="7" y="31" width="2" height="2"/>
<path d="M17.4,6.4L16,6.7c-0.1-0.8-0.6-1.6-1.4-2c-0.9-0.6-2-0.6-2.9-0.1c-1,0.5-1.7,1.5-1.7,2.7V12c0,0.3,0.1,0.6,0.4,0.8
	c0.2,0.1,0.4,0.2,0.6,0.2c0.1,0,0.1,0,0.2,0l7.3-1.6c0.7-0.2,1.3-0.6,1.7-1.2s0.4-1.4,0.2-2.1C20,6.8,18.6,6.1,17.4,6.4z M18.5,9.1
	c0,0.1-0.2,0.2-0.4,0.3L12,10.8V7.2c0-0.4,0.2-0.7,0.6-0.9c0.2-0.1,0.3-0.1,0.4-0.1c0.2,0,0.4,0.1,0.5,0.2C13.7,6.5,14,6.7,14,7.2V8
	c0,0.3,0.1,0.6,0.4,0.8C14.6,9,14.9,9,15.2,9l2.6-0.7c0.3-0.1,0.6,0.1,0.7,0.4C18.6,8.9,18.5,9.1,18.5,9.1z"/>
<rect x="19" y="2" width="2" height="2"/>
<rect x="22" y="4" width="2" height="2"/>
</svg>
