<?xml version="1.0" encoding="UTF-8" standalone="no"?> <svg id="Flat" height="512" viewBox="0 0 512 512" width="512" xmlns="http://www.w3.org/2000/svg"><g><path d="m24 24h464v400h-464z" fill="#e0f6ff"/><path d="m24 24h464v64h-464z" fill="#25b1fa"/><g fill="#f2fbff"><path d="m48 48h16v16h-16z"/><path d="m80 48h16v16h-16z"/><path d="m112 48h16v16h-16z"/><path d="m416 48h48v16h-48z"/></g><circle cx="380" cy="268" fill="#fac850" r="68"/><path d="m400 368v-74a30 30 0 0 0 -30-30h-10v128l-26.724-6.681a30 30 0 0 0 -37.276 29.104v9.577l64 24v40h128v-90a30 30 0 0 0 -30-30z" fill="#ffd4cf"/><g fill="#80daff"><path d="m293.657 181.657-11.314-11.314 56-56a8 8 0 0 1 5.657-2.343h120v16h-116.687z"/><path d="m352 144h24v16h-24z"/><path d="m392 144h72v16h-72z"/></g><g><path d="m249.077 216.018c-.272-14.2-5.912-26.383-16.533-32.515-19.132-11.046-47.177 1.713-62.641 28.5s-12.491 57.452 6.641 68.5c14.106 8.145 33.06 3.347 48.242-10.473a32 32 0 1 0 24.291-54.006z" fill="#31cad0"/><path d="m171.156 248h57.689v16h-57.689z" fill="#8ae6da" transform="matrix(.832 -.555 .555 .832 -108.413 153.935)"/><path d="m88 192h96v184h-96z" fill="#80daff"/><path d="m184 192h-96l8-32h80z" fill="#25b1fa"/><path d="m96 136h80v24h-80z" fill="#80daff"/><path d="m192 376h-80v-102a10 10 0 0 1 10-10h70z" fill="#cc6d3d"/><path d="m272 264h-80a16 16 0 0 0 -16 16 16 16 0 0 0 16 16v80h80v-80a16 16 0 0 0 16-16 16 16 0 0 0 -16-16z" fill="#f7b17c"/><ellipse cx="92" cy="328" fill="#fbb8b0" rx="36" ry="48"/><g fill="#cc6d3d"><path d="m208 304h16v16h-16z"/><path d="m224 336h16v16h-16z"/></g></g></g></svg>