<?xml version="1.0" encoding="UTF-8" standalone="no"?> <svg width="64" height="64" viewBox="0 0 64 64" fill="none" xmlns="http://www.w3.org/2000/svg">
<path d="M37 59H27C26.4 59 26 58.6 26 58V50C26 49.4 26.4 49 27 49C27.6 49 28 49.4 28 50V57H37C37.6 57 38 57.4 38 58C38 58.6 37.6 59 37 59Z" fill="#57B7EB"/>
<path d="M15 23H9C8.4 23 8 22.6 8 22V15C8 14.4 8.4 14 9 14C9.6 14 10 14.4 10 15V21H15C15.6 21 16 21.4 16 22C16 22.6 15.6 23 15 23Z" fill="#57B7EB"/>
<path d="M32 15C31.4 15 31 14.6 31 14V6H24C23.4 6 23 5.6 23 5C23 4.4 23.4 4 24 4H32C32.6 4 33 4.4 33 5V14C33 14.6 32.6 15 32 15Z" fill="#57B7EB"/>
<path d="M52 23L47.8 22.9C47.2 22.9 46.8 22.4 46.8 21.9C46.8 21.4 47.3 20.9 47.8 20.9L51 21V15C51 14.4 51.4 14 52 14C52.6 14 53 14.4 53 15V22C53 22.6 52.6 23 52 23Z" fill="#57B7EB"/>
<path d="M56 32H49C48.4 32 48 31.6 48 31C48 30.4 48.4 30 49 30H56C56.6 30 57 30.4 57 31C57 31.6 56.6 32 56 32Z" fill="#57B7EB"/>
<path d="M54 48C53.4 48 53 47.6 53 47V43H44C43.4 43 43 42.6 43 42C43 41.4 43.4 41 44 41H54C54.6 41 55 41.4 55 42V47C55 47.6 54.6 48 54 48Z" fill="#57B7EB"/>
<path d="M15 30H6C5.4 30 5 29.6 5 29C5 28.4 5.4 28 6 28H15C15.6 28 16 28.4 16 29C16 29.6 15.6 30 15 30Z" fill="#57B7EB"/>
<path d="M11 47C10.4 47 10 46.6 10 46V41C10 40.4 10.4 40 11 40H19.5C20.1 40 20.5 40.4 20.5 41C20.5 41.6 20.1 42 19.5 42H12V46C12 46.6 11.6 47 11 47Z" fill="#57B7EB"/>
<path d="M50 23C50 20.2 47.8 18 45 18C44.7 18 44.3 18 44 18.1C43.4 17.5 42.7 17 41.9 16.6C41.9 16.4 42 16.2 42 16C42 13.2 39.8 11 37 11C34.2 11 32 13.2 32 16V46C32 48.8 34.2 51 37 51C39.8 51 42 48.8 42 46C42 45.5 41.9 44.9 41.7 44.4C44.3 43.3 46 40.8 46 38V37.9C49.8 35.7 51.1 30.8 48.9 27C48.8 26.8 48.7 26.6 48.6 26.5C49.5 25.5 50 24.3 50 23Z" fill="#F9E109"/>
<path d="M14 23C14 20.2 16.2 18 19 18C19.3 18 19.7 18 20 18.1C20.6 17.5 21.3 17 22.1 16.6C22.1 16.4 22 16.2 22 16C22 13.2 24.2 11 27 11C29.8 11 32 13.2 32 16V46C32 48.8 29.8 51 27 51C24.2 51 22 48.8 22 46C22 45.5 22.1 44.9 22.3 44.4C19.7 43.4 18 40.8 18 38V37.9C14.2 35.7 12.9 30.8 15.1 27C15.2 26.8 15.3 26.6 15.4 26.5C14.5 25.5 14 24.3 14 23Z" fill="#F9E109"/>
<path d="M50 23C50 20.7 48.4 18.7 46.2 18.1C48.3 19.9 48.6 23 46.9 25.1C45.9 26.3 44.5 26.9 43 26.9C42.6 26.9 42.2 26.9 41.8 26.8C43.2 28 45.2 28.3 46.9 27.6C47.7 31.9 44.8 36.1 40.4 36.9C39 37.2 37.5 37 36.2 36.5C37.9 38.4 40.4 39.3 42.9 39C42.5 41.9 40.3 44.3 37.5 44.9C41.3 45.7 45 43.4 45.8 39.6C45.9 39.1 46 38.6 46 38.1H45.9C49.8 36 51.2 31.1 49 27.3C48.9 27.1 48.7 26.8 48.6 26.6C49.5 25.5 50 24.3 50 23Z" fill="#FCBC04"/>
<path d="M37 21C39.8 21 42 18.8 42 16C42 14.4 41.2 12.9 39.9 12C39.9 12.3 39.9 12.7 39.9 13C39.9 16 38.7 18.9 36.5 21C36.7 21 36.9 21 37 21Z" fill="#FCBC04"/>
<path d="M27.6 11C27.9 11.6 28 12.3 28 13V43C28 45.8 25.8 48 23 48C22.8 48 22.6 48 22.4 48C23.5 50.5 26.4 51.7 29 50.6C30.8 49.8 32 48 32 46V16C32 13.5 30.1 11.3 27.6 11Z" fill="#FCBC04"/>
<path d="M26.5 44.8C23.6 44.2 21.5 41.8 21.1 38.9C23.6 39.2 26.1 38.3 27.8 36.4C23.7 38 19.1 35.9 17.5 31.8C17 30.5 16.8 29 17.1 27.6C18.8 28.3 20.7 28 22.2 26.8C21.8 27 21.4 27 21 27C18.2 27 16 24.8 16 22C16 20.5 16.7 19.1 17.8 18.1C15.1 18.7 13.5 21.4 14.1 24.1C14.3 25 14.8 25.8 15.4 26.4C12.9 30 13.8 35 17.4 37.5C17.6 37.7 17.9 37.8 18.1 37.9H18C18 41.8 21.1 44.9 25 44.9C25.5 45 26 44.9 26.5 44.8Z" fill="#FCBC04"/>
<path d="M27 21C27.1 21 27.3 21 27.4 21C25.2 18.9 24 16 24 13C24 12.6 24 12.3 24 12C21.8 13.6 21.3 16.8 22.9 19C23.9 20.2 25.4 21 27 21Z" fill="#FCBC04"/>
<path d="M39 35C37.7 35 36.4 34.5 35.5 33.5C35.1 33.1 35.1 32.5 35.5 32.1C35.9 31.7 36.5 31.7 36.9 32.1C38.1 33.3 40 33.3 41.1 32.1C41.5 31.7 42.1 31.7 42.5 32.1C42.9 32.5 42.9 33.1 42.5 33.5C41.6 34.5 40.3 35 39 35Z" fill="#FCBC04"/>
<path d="M39.4 29.5C37.2 29.5 35.4 27.7 35.4 25.5C35.4 24.9 35.8 24.5 36.4 24.5C37 24.5 37.4 24.9 37.4 25.5C37.4 26.6 38.3 27.5 39.4 27.5C40 27.5 40.4 27.9 40.4 28.5C40.4 29.1 39.9 29.5 39.4 29.5Z" fill="#FCBC04"/>
<path d="M37 42.6C36.2 42.6 35.5 42.2 35.1 41.4C34.9 40.9 35.1 40.3 35.5 40.1C36 39.9 36.6 40.1 36.8 40.5H37C37.2 40 37.8 39.8 38.3 40.1C38.8 40.3 39 40.9 38.7 41.4C38.5 42.2 37.8 42.6 37 42.6Z" fill="#FCBC04"/>
<path d="M35 20C34.4 20 34 19.6 34 19C34 17.3 35.3 16 37 16C37.6 16 38 16.4 38 17C38 17.6 37.6 18 37 18C36.4 18 36 18.4 36 19C36 19.6 35.6 20 35 20Z" fill="#FCBC04"/>
<path d="M36 48C36.5523 48 37 47.5523 37 47C37 46.4477 36.5523 46 36 46C35.4477 46 35 46.4477 35 47C35 47.5523 35.4477 48 36 48Z" fill="#FCBC04"/>
<path d="M43 25C43.5523 25 44 24.5523 44 24C44 23.4477 43.5523 23 43 23C42.4477 23 42 23.4477 42 24C42 24.5523 42.4477 25 43 25Z" fill="#FCBC04"/>
<path d="M46 33C46.5523 33 47 32.5523 47 32C47 31.4477 46.5523 31 46 31C45.4477 31 45 31.4477 45 32C45 32.5523 45.4477 33 46 33Z" fill="#FCBC04"/>
<path d="M26 36C24.7 36 23.4 35.5 22.5 34.5C22.1 34.1 22.1 33.5 22.5 33.1C22.9 32.7 23.5 32.7 23.9 33.1C25.1 34.3 27 34.3 28.1 33.1C28.5 32.7 29.1 32.7 29.5 33.1C29.9 33.5 29.9 34.1 29.5 34.5C28.6 35.5 27.3 36 26 36Z" fill="#FCBC04"/>
<path d="M25.6 29.5C25 29.5 24.6 29.1 24.6 28.5C24.6 27.9 25 27.5 25.6 27.5C26.7 27.5 27.6 26.6 27.6 25.5C27.6 24.9 28 24.5 28.6 24.5C29.2 24.5 29.6 24.9 29.6 25.5C29.6 27.7 27.8 29.5 25.6 29.5Z" fill="#FCBC04"/>
<path d="M25 42.6C24.2 42.6 23.5 42.1 23.1 41.4C22.9 40.9 23.1 40.3 23.5 40.1C24 39.9 24.6 40.1 24.8 40.5H25C25.2 40 25.8 39.8 26.3 40.1C26.8 40.3 27 40.9 26.7 41.4C26.5 42.2 25.8 42.6 25 42.6Z" fill="#FCBC04"/>
<path d="M28 20C27.4 20 27 19.6 27 19C27 18.4 26.6 18 26 18C25.4 18 25 17.6 25 17C25 16.4 25.4 16 26 16C27.7 16 29 17.3 29 19C29 19.6 28.6 20 28 20Z" fill="#FCBC04"/>
<path d="M28 48C28.5523 48 29 47.5523 29 47C29 46.4477 28.5523 46 28 46C27.4477 46 27 46.4477 27 47C27 47.5523 27.4477 48 28 48Z" fill="#FCBC04"/>
<path d="M21 24C21.5523 24 22 23.5523 22 23C22 22.4477 21.5523 22 21 22C20.4477 22 20 22.4477 20 23C20 23.5523 20.4477 24 21 24Z" fill="#FCBC04"/>
<path d="M20 32C20.5523 32 21 31.5523 21 31C21 30.4477 20.5523 30 20 30C19.4477 30 19 30.4477 19 31C19 31.5523 19.4477 32 20 32Z" fill="#FCBC04"/>
<path d="M52.2 15.2C55.5137 15.2 58.2 12.5137 58.2 9.19995C58.2 5.88624 55.5137 3.19995 52.2 3.19995C48.8863 3.19995 46.2 5.88624 46.2 9.19995C46.2 12.5137 48.8863 15.2 52.2 15.2Z" fill="#4891D3"/>
<path d="M57.3 12.3C55.6 15.1 51.9 16 49.1 14.3C46.3 12.6 45.4 8.89998 47.1 6.09998C47.6 5.29998 48.3 4.59998 49.1 4.09998C48.5 4.99998 48.2 6.09998 48.2 7.19998C48.2 10.5 50.9 13.2 54.2 13.2C55.3 13.2 56.4 12.9 57.3 12.3Z" fill="#2D72BC"/>
<path d="M52.2 11.2C53.3046 11.2 54.2 10.3045 54.2 9.19995C54.2 8.09538 53.3046 7.19995 52.2 7.19995C51.0954 7.19995 50.2 8.09538 50.2 9.19995C50.2 10.3045 51.0954 11.2 52.2 11.2Z" fill="#F9E109"/>
<path d="M54.2 13.2V14.8C52.9 15.3 51.5 15.3 50.2 14.8V13.2C50.2 12.1 51.1 11.2 52.2 11.2C53.3 11.2 54.2 12.1 54.2 13.2Z" fill="#F9E109"/>
<path d="M54.2 13.2V14.8C52.9 15.3 51.5 15.3 50.2 14.8V13.2C50.2 12.8 50.3 12.3 50.6 12C51.6 12.8 52.9 13.2 54.2 13.2Z" fill="#FCBC04"/>
<path d="M54 9.99996C53.6 11 52.4 11.5 51.4 11C50.4 10.5 49.9 9.39996 50.4 8.39996C50.6 7.89996 51 7.59996 51.4 7.39996C51.3 7.69996 51.2 7.89996 51.2 8.19996C51.2 9.29996 52.1 10.2 53.2 10.2C53.5 10.2 53.7 10.1 54 9.99996Z" fill="#FCBC04"/>
<path d="M9.20001 15.2C12.5137 15.2 15.2 12.5137 15.2 9.19995C15.2 5.88624 12.5137 3.19995 9.20001 3.19995C5.8863 3.19995 3.20001 5.88624 3.20001 9.19995C3.20001 12.5137 5.8863 15.2 9.20001 15.2Z" fill="#4891D3"/>
<path d="M14.3 12.3C12.6 15.1 8.90002 16 6.10002 14.3C3.30002 12.6 2.30002 8.89998 4.00002 6.09998C4.50002 5.29998 5.20002 4.59998 6.00002 4.09998C5.50002 4.99998 5.20002 6.09998 5.20002 7.19998C5.20002 10.5 7.90002 13.2 11.2 13.2C12.3 13.2 13.4 12.9 14.3 12.3Z" fill="#2D72BC"/>
<path d="M9.20001 11.2C10.3046 11.2 11.2 10.3045 11.2 9.19995C11.2 8.09538 10.3046 7.19995 9.20001 7.19995C8.09544 7.19995 7.20001 8.09538 7.20001 9.19995C7.20001 10.3045 8.09544 11.2 9.20001 11.2Z" fill="#F9E109"/>
<path d="M11.2 13.2V14.8C9.90001 15.3 8.50001 15.3 7.20001 14.8V13.2C7.20001 12.1 8.10001 11.2 9.20001 11.2C10.3 11.2 11.2 12.1 11.2 13.2Z" fill="#F9E109"/>
<path d="M11.2 13.2V14.8C9.90001 15.3 8.50001 15.3 7.20001 14.8V13.2C7.20001 12.8 7.30001 12.3 7.60001 12C8.60001 12.8 9.90001 13.2 11.2 13.2Z" fill="#FCBC04"/>
<path d="M11 9.99996C10.6 11 9.40001 11.5 8.40001 11C7.40001 10.5 6.90001 9.39996 7.40001 8.39996C7.60001 7.89996 8.00001 7.59996 8.40001 7.39996C8.20001 7.59996 8.20001 7.89996 8.20001 8.19996C8.20001 9.29996 9.10001 10.2 10.2 10.2C10.5 10.2 10.7 10.1 11 9.99996Z" fill="#FCBC04"/>
<path d="M54 58C57.3137 58 60 55.3137 60 52C60 48.6863 57.3137 46 54 46C50.6863 46 48 48.6863 48 52C48 55.3137 50.6863 58 54 58Z" fill="#4891D3"/>
<path d="M59.1 55.1C57.4 57.9 53.7 58.8 50.9 57.1C48.1 55.4 47.2 51.7 48.9 48.9C49.4 48.1 50.1 47.4 50.9 46.9C50.3 47.8 50 48.9 50 50C50 53.3 52.7 56 56 56C57.1 56 58.2 55.7 59.1 55.1Z" fill="#2D72BC"/>
<path d="M54 54C55.1046 54 56 53.1046 56 52C56 50.8954 55.1046 50 54 50C52.8954 50 52 50.8954 52 52C52 53.1046 52.8954 54 54 54Z" fill="#F9E109"/>
<path d="M56 56V57.7C54.7 58.2 53.3 58.2 52 57.7V56C52 54.9 52.9 54 54 54C55.1 54 56 54.9 56 56Z" fill="#F9E109"/>
<path d="M56 56V57.7C54.7 58.2 53.3 58.2 52 57.7V56C52 55.6 52.1 55.1 52.4 54.8C53.4 55.6 54.7 56 56 56Z" fill="#FCBC04"/>
<path d="M55.8 52.7999C55.4 53.7999 54.2 54.2999 53.2 53.7999C52.2 53.2999 51.7 52.2 52.2 51.2C52.4 50.7 52.8 50.4 53.2 50.2C53.1 50.4 53 50.7 53 51C53 52.1 53.9 53 55 53C55.3 53 55.6 52.8999 55.8 52.7999Z" fill="#FCBC04"/>
<path d="M11 61C15.4183 61 19 57.4183 19 53C19 48.5817 15.4183 45 11 45C6.58172 45 3 48.5817 3 53C3 57.4183 6.58172 61 11 61Z" fill="#4891D3"/>
<path d="M17.8 57.3C15.5 61 10.5 62.2 6.8 59.8C3.1 57.4 1.9 52.5 4.3 48.8C4.9 47.8 5.8 46.9 6.8 46.3C6 47.6 5.6 49.1 5.6 50.6C5.6 55 9.2 58.6 13.6 58.6C15 58.5 16.5 58.1 17.8 57.3Z" fill="#2D72BC"/>
<path d="M11 55C12.6569 55 14 53.6569 14 52C14 50.3431 12.6569 49 11 49C9.34315 49 8 50.3431 8 52C8 53.6569 9.34315 55 11 55Z" fill="#F9E109"/>
<path d="M14 58V60.4C12.1 61.2 9.9 61.2 8 60.4V58C8 56.3 9.3 55 11 55C12.7 55 14 56.3 14 58Z" fill="#F9E109"/>
<path d="M14 58.5V60.4C12.1 61.2 9.9 61.2 8 60.4V58C8 57.5 8.1 57 8.3 56.6C9.7 57.8 11.6 58.5 13.5 58.5C13.7 58.5 13.8 58.5 14 58.5Z" fill="#FCBC04"/>
<path d="M13.2 54C12.6 54.7 11.8 55 11 55C9.3 55 8 53.7 8 52C8 50.4 9.2 49.1 10.8 49C9.7 50.2 9.8 52.1 11 53.2C11.6 53.7 12.3 54 13 54C13.1 54 13.2 54 13.2 54Z" fill="#FCBC04"/>
<path d="M39 61C40.6569 61 42 59.6569 42 58C42 56.3431 40.6569 55 39 55C37.3431 55 36 56.3431 36 58C36 59.6569 37.3431 61 39 61Z" fill="#A1D51C"/>
<path d="M41.9 58.9C41.4 60.5 39.7 61.4 38.2 60.9C36.7 60.4 35.7 58.7 36.2 57.2C36.5 56.2 37.2 55.5 38.2 55.2C38 55.4 38 55.7 38 56C38 57.7 39.3 59 41 59C41.3 59 41.6 59 41.9 58.9Z" fill="#7AB92D"/>
<path d="M58 34C59.6569 34 61 32.6569 61 31C61 29.3431 59.6569 28 58 28C56.3431 28 55 29.3431 55 31C55 32.6569 56.3431 34 58 34Z" fill="#A1D51C"/>
<path d="M60.9 31.9C60.4 33.5 58.7 34.4 57.2 33.9C55.6 33.4 54.7 31.7 55.2 30.2C55.5 29.2 56.2 28.5 57.2 28.2C57 28.4 57 28.7 57 29C57 30.7 58.3 32 60 32C60.3 32 60.6 32 60.9 31.9Z" fill="#7AB92D"/>
<path d="M23.1 7.09998C24.2045 7.09998 25.1 6.20455 25.1 5.09998C25.1 3.99541 24.2045 3.09998 23.1 3.09998C21.9954 3.09998 21.1 3.99541 21.1 5.09998C21.1 6.20455 21.9954 7.09998 23.1 7.09998Z" fill="#A1D51C"/>
<path d="M24.9 5.89999C24.5 6.89999 23.3 7.39999 22.3 6.89999C21.3 6.49999 20.8 5.29999 21.3 4.29999C21.5 3.79999 21.9 3.49999 22.3 3.29999C22.2 3.59999 22.1 3.79999 22.1 4.09999C22.1 5.19999 23 6.09999 24.1 6.09999C24.4 6.09999 24.6 5.99999 24.9 5.89999Z" fill="#7AB92D"/>
<path d="M5 31C6.10457 31 7 30.1046 7 29C7 27.8954 6.10457 27 5 27C3.89543 27 3 27.8954 3 29C3 30.1046 3.89543 31 5 31Z" fill="#A1D51C"/>
<path d="M6.8 29.7999C6.4 30.7999 5.2 31.2999 4.2 30.7999C3.2 30.2999 2.7 29.2 3.2 28.2C3.4 27.7 3.8 27.4 4.2 27.2C4.1 27.4 4 27.7 4 28C4 29.1 4.9 30 6 30C6.3 30 6.6 29.8999 6.8 29.7999Z" fill="#7AB92D"/>
</svg>
