<svg width="18" height="20" viewBox="0 0 18 20" fill="none" xmlns="http://www.w3.org/2000/svg">
<path d="M5 12C4.71667 12 4.479 11.904 4.287 11.712C4.095 11.52 3.99934 11.2827 4 11C4 10.7167 4.096 10.479 4.288 10.287C4.48 10.095 4.71734 9.99933 5 10C5.28334 10 5.521 10.096 5.713 10.288C5.905 10.48 6.00067 10.7173 6 11C6 11.2833 5.904 11.521 5.712 11.713C5.52 11.905 5.28267 12.0007 5 12ZM9 12C8.71667 12 8.479 11.904 8.287 11.712C8.095 11.52 7.99934 11.2827 8 11C8 10.7167 8.096 10.479 8.288 10.287C8.48 10.095 8.71734 9.99933 9 10C9.28334 10 9.521 10.096 9.713 10.288C9.905 10.48 10.0007 10.7173 10 11C10 11.2833 9.904 11.521 9.712 11.713C9.52 11.905 9.28267 12.0007 9 12ZM13 12C12.7167 12 12.479 11.904 12.287 11.712C12.095 11.52 11.9993 11.2827 12 11C12 10.7167 12.096 10.479 12.288 10.287C12.48 10.095 12.7173 9.99933 13 10C13.2833 10 13.521 10.096 13.713 10.288C13.905 10.48 14.0007 10.7173 14 11C14 11.2833 13.904 11.521 13.712 11.713C13.52 11.905 13.2827 12.0007 13 12ZM2 20C1.45 20 0.979002 19.804 0.587002 19.412C0.195002 19.02 -0.000664969 18.5493 1.69779e-06 18V4C1.69779e-06 3.45 0.196002 2.979 0.588002 2.587C0.980002 2.195 1.45067 1.99933 2 2H3V0.975C3 0.691667 3.096 0.458333 3.288 0.275C3.48 0.0916668 3.71734 0 4 0C4.28334 0 4.521 0.0960001 4.713 0.288C4.905 0.48 5.00067 0.717333 5 1V2H13V0.975C13 0.691667 13.096 0.458333 13.288 0.275C13.48 0.0916668 13.7173 0 14 0C14.2833 0 14.521 0.0960001 14.713 0.288C14.905 0.48 15.0007 0.717333 15 1V2H16C16.55 2 17.021 2.196 17.413 2.588C17.805 2.98 18.0007 3.45067 18 4V18C18 18.55 17.804 19.021 17.412 19.413C17.02 19.805 16.5493 20.0007 16 20H2ZM2 18H16V8H2V18Z"/>
</svg>
