<svg width="17" height="16" viewBox="0 0 17 16" fill="none" xmlns="http://www.w3.org/2000/svg">
<path d="M16.9642 6.61419V13.4939C16.9642 14.1586 16.7001 14.796 16.2302 15.266C15.7602 15.736 15.1227 16 14.4581 16H2.50607C1.84142 16 1.20399 15.736 0.734011 15.266C0.264031 14.796 0 14.1586 0 13.4939V6.61419C0 6.53477 0.00462656 6.45535 0.0131086 6.37747L8.17518 11.4783C8.25528 11.5284 8.34643 11.5581 8.44066 11.5648C8.53489 11.5715 8.62933 11.555 8.71572 11.5168L8.78898 11.4783L16.9511 6.37747C16.9595 6.45535 16.9642 6.53477 16.9642 6.61419ZM8.79977 0.0953282L16.0095 4.84298C16.2 4.9679 16.365 5.12057 16.503 5.2933L8.48208 10.3054L0.461117 5.2933C0.599143 5.12057 0.764929 4.9679 0.95462 4.84298L8.16439 0.0953282C8.25882 0.0331424 8.3694 0 8.48247 0C8.59553 0 8.70612 0.0331424 8.80054 0.0953282H8.79977Z"/>
</svg>
