<svg width="22" height="16" viewBox="0 0 22 16" fill="none" xmlns="http://www.w3.org/2000/svg">
<path d="M12 4C12 5.06087 11.5786 6.07828 10.8284 6.82843C10.0783 7.57857 9.06087 8 8 8C6.93913 8 5.92172 7.57857 5.17157 6.82843C4.42143 6.07828 4 5.06087 4 4C4 2.93913 4.42143 1.92172 5.17157 1.17157C5.92172 0.421427 6.93913 0 8 0C9.06087 0 10.0783 0.421427 10.8284 1.17157C11.5786 1.92172 12 2.93913 12 4ZM16 14V16H0V14C0 11.79 3.58 10 8 10C12.42 10 16 11.79 16 14ZM19.5 10.5V12H18V10.5H19.5ZM17.5 5.5H16V5C16 4.20435 16.3161 3.44129 16.8787 2.87868C17.4413 2.31607 18.2044 2 19 2C19.7956 2 20.5587 2.31607 21.1213 2.87868C21.6839 3.44129 22 4.20435 22 5C22 5.97 21.5 6.88 20.71 7.41L20.41 7.6C19.84 8 19.5 8.61 19.5 9.3V9.5H18V9.3C18 8.11 18.6 7 19.59 6.35L19.88 6.16C20.27 5.9 20.5 5.47 20.5 5C20.5 4.60218 20.342 4.22064 20.0607 3.93934C19.7794 3.65804 19.3978 3.5 19 3.5C18.6022 3.5 18.2206 3.65804 17.9393 3.93934C17.658 4.22064 17.5 4.60218 17.5 5V5.5Z"/>
</svg>
