<svg width="22" height="16" viewBox="0 0 22 16" fill="none" xmlns="http://www.w3.org/2000/svg">
<path fill-rule="evenodd" clip-rule="evenodd" d="M15.6699 9.13C17.0399 10.06 17.9999 11.32 17.9999 13V16H21.9999V13C21.9999 10.82 18.4299 9.53 15.6699 9.13Z" fill="#D9D9D9"/>
<path d="M8 8C10.2091 8 12 6.20914 12 4C12 1.79086 10.2091 0 8 0C5.79086 0 4 1.79086 4 4C4 6.20914 5.79086 8 8 8Z" fill="#D9D9D9"/>
<path fill-rule="evenodd" clip-rule="evenodd" d="M14 8C16.21 8 18 6.21 18 4C18 1.79 16.21 0 14 0C13.53 0 13.09 0.0999998 12.67 0.24C13.5305 1.30422 14 2.6314 14 4C14 5.3686 13.5305 6.69578 12.67 7.76C13.09 7.9 13.53 8 14 8ZM8 9C5.33 9 0 10.34 0 13V16H16V13C16 10.34 10.67 9 8 9Z"/>
</svg>
