<svg width="20" height="20" viewBox="0 0 20 20" fill="none" xmlns="http://www.w3.org/2000/svg">
<path fill-rule="evenodd" clip-rule="evenodd" d="M13.793 18.4442C12.593 18.4 9.19217 17.93 5.63051 14.3692C2.06967 10.8075 1.60051 7.4075 1.55551 6.20667C1.48884 4.37667 2.89051 2.59917 4.50967 1.905C4.70465 1.82081 4.91818 1.78875 5.12928 1.81198C5.34039 1.83521 5.54183 1.91293 5.71384 2.0375C7.04717 3.00917 7.96717 4.47917 8.75717 5.635C8.93099 5.88895 9.00531 6.19796 8.96597 6.50317C8.92663 6.80838 8.77638 7.08844 8.54384 7.29L6.91801 8.4975C6.83946 8.55422 6.78417 8.63753 6.7624 8.73194C6.74064 8.82635 6.75388 8.92545 6.79967 9.01084C7.16801 9.68 7.82301 10.6767 8.57301 11.4267C9.32384 12.1767 10.3672 12.875 11.083 13.285C11.1728 13.3354 11.2784 13.3495 11.3782 13.3244C11.478 13.2993 11.5644 13.2369 11.6197 13.15L12.678 11.5392C12.8726 11.2807 13.1596 11.1076 13.479 11.056C13.7984 11.0044 14.1253 11.0784 14.3913 11.2625C15.5638 12.0742 16.9322 12.9783 17.9338 14.2608C18.0685 14.4341 18.1542 14.6403 18.1819 14.858C18.2096 15.0757 18.1783 15.2969 18.0913 15.4983C17.3938 17.1258 15.6288 18.5117 13.793 18.4442Z"/>
</svg>
