<svg width="10" height="10" viewBox="0 0 10 10" fill="none" xmlns="http://www.w3.org/2000/svg">
<path d="M9.55855 5.58587L5.321 9.82343C5.25679 9.88763 5.18724 9.93322 5.11233 9.96018C5.03742 9.98715 4.95717 10.0004 4.87156 9.99999C4.78595 9.99999 4.7057 9.98651 4.63079 9.95954C4.55588 9.93257 4.48633 9.8872 4.42212 9.82343L0.184567 5.58587C0.0668567 5.46816 0.00543372 5.32092 0.000297286 5.14414C-0.00483914 4.96736 0.0565838 4.81498 0.184567 4.687C0.302276 4.55858 0.449521 4.4916 0.6263 4.48603C0.803078 4.48047 0.955459 4.5421 1.08344 4.67094L4.22951 7.81701L4.22951 0.642056C4.22951 0.46014 4.29114 0.307547 4.41442 0.184272C4.53769 0.060998 4.69007 -0.000426292 4.87156 1.90735e-06C5.05347 1.90735e-06 5.20607 0.0614252 5.32934 0.184272C5.45262 0.307118 5.51404 0.459713 5.51361 0.642056L5.51361 7.81701L8.65968 4.67094C8.77739 4.55323 8.9272 4.4916 9.10911 4.48603C9.29103 4.48047 9.44084 4.5421 9.55855 4.67094C9.68696 4.78865 9.75117 4.93847 9.75117 5.12038C9.75117 5.3023 9.68696 5.45746 9.55855 5.58587Z" fill="#4A291E"/>
</svg>
